<mxfile host="app.diagrams.net" modified="2023-03-25T13:27:25.467Z" agent="Mozilla/5.0 (Windows NT 10.0; Win64; x64) AppleWebKit/537.36 (KHTML, like Gecko) Chrome/111.0.0.0 Safari/537.36" etag="YotMlyH6-f2cqU8qK7j0" version="21.1.0" type="device">
  <diagram name="Page-1" id="sGzxX93xdV-w-MH2Fxeq">
    <mxGraphModel dx="1050" dy="573" grid="1" gridSize="10" guides="1" tooltips="1" connect="1" arrows="1" fold="1" page="1" pageScale="1" pageWidth="850" pageHeight="1100" math="0" shadow="0">
      <root>
        <mxCell id="0" />
        <mxCell id="1" parent="0" />
        <mxCell id="4WGJ3wxzGURj5zULlZlS-76" style="edgeStyle=orthogonalEdgeStyle;rounded=0;orthogonalLoop=1;jettySize=auto;html=1;exitX=0.88;exitY=0.25;exitDx=0;exitDy=0;exitPerimeter=0;dashed=1;curved=1;endArrow=block;endFill=1;" parent="1" source="4WGJ3wxzGURj5zULlZlS-74" target="4WGJ3wxzGURj5zULlZlS-72" edge="1">
          <mxGeometry relative="1" as="geometry">
            <Array as="points">
              <mxPoint x="176" y="200" />
              <mxPoint x="240" y="200" />
            </Array>
          </mxGeometry>
        </mxCell>
        <mxCell id="4WGJ3wxzGURj5zULlZlS-77" style="edgeStyle=orthogonalEdgeStyle;rounded=0;orthogonalLoop=1;jettySize=auto;html=1;dashed=1;endArrow=block;endFill=1;exitX=0.8;exitY=0.8;exitDx=0;exitDy=0;exitPerimeter=0;curved=1;" parent="1" source="4WGJ3wxzGURj5zULlZlS-74" target="4WGJ3wxzGURj5zULlZlS-6" edge="1">
          <mxGeometry relative="1" as="geometry">
            <Array as="points">
              <mxPoint x="160" y="400" />
              <mxPoint x="240" y="400" />
            </Array>
          </mxGeometry>
        </mxCell>
        <mxCell id="4WGJ3wxzGURj5zULlZlS-74" value="" style="ellipse;shape=cloud;whiteSpace=wrap;html=1;" parent="1" vertex="1">
          <mxGeometry y="170" width="200" height="230" as="geometry" />
        </mxCell>
        <mxCell id="4WGJ3wxzGURj5zULlZlS-52" style="edgeStyle=orthogonalEdgeStyle;rounded=0;orthogonalLoop=1;jettySize=auto;html=1;endArrow=block;endFill=1;" parent="1" source="4WGJ3wxzGURj5zULlZlS-6" target="4WGJ3wxzGURj5zULlZlS-34" edge="1">
          <mxGeometry relative="1" as="geometry">
            <Array as="points">
              <mxPoint x="350" y="470" />
              <mxPoint x="350" y="670" />
            </Array>
          </mxGeometry>
        </mxCell>
        <mxCell id="4WGJ3wxzGURj5zULlZlS-53" style="edgeStyle=orthogonalEdgeStyle;rounded=0;orthogonalLoop=1;jettySize=auto;html=1;endArrow=block;endFill=1;" parent="1" source="4WGJ3wxzGURj5zULlZlS-6" target="4WGJ3wxzGURj5zULlZlS-48" edge="1">
          <mxGeometry relative="1" as="geometry">
            <Array as="points">
              <mxPoint x="350" y="470" />
              <mxPoint x="350" y="270" />
            </Array>
          </mxGeometry>
        </mxCell>
        <mxCell id="4WGJ3wxzGURj5zULlZlS-60" style="edgeStyle=orthogonalEdgeStyle;rounded=0;orthogonalLoop=1;jettySize=auto;html=1;endArrow=block;endFill=1;" parent="1" source="4WGJ3wxzGURj5zULlZlS-6" target="4WGJ3wxzGURj5zULlZlS-57" edge="1">
          <mxGeometry relative="1" as="geometry">
            <Array as="points">
              <mxPoint x="300" y="470" />
              <mxPoint x="300" y="470" />
            </Array>
          </mxGeometry>
        </mxCell>
        <mxCell id="4WGJ3wxzGURj5zULlZlS-61" style="edgeStyle=orthogonalEdgeStyle;rounded=0;orthogonalLoop=1;jettySize=auto;html=1;endArrow=block;endFill=1;" parent="1" source="4WGJ3wxzGURj5zULlZlS-6" target="4WGJ3wxzGURj5zULlZlS-55" edge="1">
          <mxGeometry relative="1" as="geometry">
            <Array as="points">
              <mxPoint x="350" y="470" />
              <mxPoint x="350" y="350" />
            </Array>
          </mxGeometry>
        </mxCell>
        <mxCell id="4WGJ3wxzGURj5zULlZlS-68" style="edgeStyle=orthogonalEdgeStyle;rounded=0;orthogonalLoop=1;jettySize=auto;html=1;endArrow=block;endFill=1;" parent="1" source="4WGJ3wxzGURj5zULlZlS-6" target="4WGJ3wxzGURj5zULlZlS-62" edge="1">
          <mxGeometry relative="1" as="geometry">
            <Array as="points">
              <mxPoint x="350" y="470" />
              <mxPoint x="350" y="930" />
            </Array>
          </mxGeometry>
        </mxCell>
        <mxCell id="4WGJ3wxzGURj5zULlZlS-78" style="edgeStyle=orthogonalEdgeStyle;rounded=0;orthogonalLoop=1;jettySize=auto;html=1;dashed=1;endArrow=block;endFill=1;" parent="1" source="4WGJ3wxzGURj5zULlZlS-6" target="4WGJ3wxzGURj5zULlZlS-72" edge="1">
          <mxGeometry relative="1" as="geometry">
            <Array as="points">
              <mxPoint x="250" y="290" />
              <mxPoint x="250" y="290" />
            </Array>
          </mxGeometry>
        </mxCell>
        <mxCell id="4WGJ3wxzGURj5zULlZlS-6" value="ShopService" style="html=1;whiteSpace=wrap;fillColor=#bac8d3;strokeColor=#23445d;strokeWidth=2;" parent="1" vertex="1">
          <mxGeometry x="180" y="440" width="120" height="60" as="geometry" />
        </mxCell>
        <mxCell id="4WGJ3wxzGURj5zULlZlS-12" value="SellerDTO" style="html=1;whiteSpace=wrap;fillColor=#ffe6cc;strokeColor=#d79b00;" parent="1" vertex="1">
          <mxGeometry x="630" y="80" width="120" height="60" as="geometry" />
        </mxCell>
        <mxCell id="4WGJ3wxzGURj5zULlZlS-13" value="ShopPermissionDTO" style="html=1;whiteSpace=wrap;fillColor=#b0e3e6;strokeColor=#0e8088;" parent="1" vertex="1">
          <mxGeometry x="630" y="160" width="120" height="60" as="geometry" />
        </mxCell>
        <mxCell id="4WGJ3wxzGURj5zULlZlS-14" value="ShopHandlerDTO" style="html=1;whiteSpace=wrap;fillColor=#b0e3e6;strokeColor=#0e8088;" parent="1" vertex="1">
          <mxGeometry x="630" y="240" width="120" height="60" as="geometry" />
        </mxCell>
        <mxCell id="4WGJ3wxzGURj5zULlZlS-15" value="ShopDTO" style="html=1;whiteSpace=wrap;fillColor=#d5e8d4;strokeColor=#82b366;" parent="1" vertex="1">
          <mxGeometry x="630" y="320" width="120" height="60" as="geometry" />
        </mxCell>
        <mxCell id="4WGJ3wxzGURj5zULlZlS-69" value="" style="edgeStyle=orthogonalEdgeStyle;rounded=0;orthogonalLoop=1;jettySize=auto;html=1;" parent="1" source="4WGJ3wxzGURj5zULlZlS-16" target="4WGJ3wxzGURj5zULlZlS-18" edge="1">
          <mxGeometry relative="1" as="geometry" />
        </mxCell>
        <mxCell id="4WGJ3wxzGURj5zULlZlS-16" value="DiscountRuleDTO" style="html=1;whiteSpace=wrap;fillColor=#dae8fc;strokeColor=#6c8ebf;" parent="1" vertex="1">
          <mxGeometry x="630" y="480" width="120" height="60" as="geometry" />
        </mxCell>
        <mxCell id="4WGJ3wxzGURj5zULlZlS-18" value="ProductDTO" style="html=1;whiteSpace=wrap;fillColor=#dae8fc;strokeColor=#6c8ebf;" parent="1" vertex="1">
          <mxGeometry x="630" y="400" width="120" height="60" as="geometry" />
        </mxCell>
        <mxCell id="4WGJ3wxzGURj5zULlZlS-19" value="RaffleDTO" style="html=1;whiteSpace=wrap;fillColor=#e1d5e7;strokeColor=#9673a6;" parent="1" vertex="1">
          <mxGeometry x="630" y="560" width="120" height="60" as="geometry" />
        </mxCell>
        <mxCell id="4WGJ3wxzGURj5zULlZlS-20" value="AuctionDTO" style="html=1;whiteSpace=wrap;fillColor=#e1d5e7;strokeColor=#9673a6;" parent="1" vertex="1">
          <mxGeometry x="630" y="640" width="120" height="60" as="geometry" />
        </mxCell>
        <mxCell id="4WGJ3wxzGURj5zULlZlS-21" value="AuctionBidDTO" style="html=1;whiteSpace=wrap;fillColor=#e1d5e7;strokeColor=#9673a6;" parent="1" vertex="1">
          <mxGeometry x="630" y="800" width="120" height="60" as="geometry" />
        </mxCell>
        <mxCell id="4WGJ3wxzGURj5zULlZlS-22" value="RaffleBidDTO" style="html=1;whiteSpace=wrap;fillColor=#e1d5e7;strokeColor=#9673a6;" parent="1" vertex="1">
          <mxGeometry x="630" y="720" width="120" height="60" as="geometry" />
        </mxCell>
        <mxCell id="4WGJ3wxzGURj5zULlZlS-24" value="Models" style="shape=umlFrame;whiteSpace=wrap;html=1;pointerEvents=0;width=80;height=20;" parent="1" vertex="1">
          <mxGeometry x="590" y="40" width="200" height="1000" as="geometry" />
        </mxCell>
        <mxCell id="4WGJ3wxzGURj5zULlZlS-25" value="Controllers" style="shape=umlFrame;whiteSpace=wrap;html=1;pointerEvents=0;width=80;height=20;" parent="1" vertex="1">
          <mxGeometry x="370" y="40" width="200" height="1000" as="geometry" />
        </mxCell>
        <mxCell id="4WGJ3wxzGURj5zULlZlS-27" style="edgeStyle=orthogonalEdgeStyle;rounded=0;orthogonalLoop=1;jettySize=auto;html=1;endArrow=block;endFill=1;" parent="1" source="4WGJ3wxzGURj5zULlZlS-26" target="4WGJ3wxzGURj5zULlZlS-12" edge="1">
          <mxGeometry relative="1" as="geometry" />
        </mxCell>
        <mxCell id="4WGJ3wxzGURj5zULlZlS-26" value="SellerController" style="html=1;whiteSpace=wrap;fillColor=#ffe6cc;strokeColor=#d79b00;" parent="1" vertex="1">
          <mxGeometry x="410" y="80" width="120" height="60" as="geometry" />
        </mxCell>
        <mxCell id="4WGJ3wxzGURj5zULlZlS-36" style="edgeStyle=orthogonalEdgeStyle;rounded=0;orthogonalLoop=1;jettySize=auto;html=1;endArrow=block;endFill=1;" parent="1" source="4WGJ3wxzGURj5zULlZlS-34" target="4WGJ3wxzGURj5zULlZlS-19" edge="1">
          <mxGeometry relative="1" as="geometry">
            <Array as="points">
              <mxPoint x="580" y="670" />
              <mxPoint x="580" y="590" />
            </Array>
          </mxGeometry>
        </mxCell>
        <mxCell id="4WGJ3wxzGURj5zULlZlS-37" style="edgeStyle=orthogonalEdgeStyle;rounded=0;orthogonalLoop=1;jettySize=auto;html=1;endArrow=block;endFill=1;" parent="1" source="4WGJ3wxzGURj5zULlZlS-34" target="4WGJ3wxzGURj5zULlZlS-20" edge="1">
          <mxGeometry relative="1" as="geometry" />
        </mxCell>
        <mxCell id="4WGJ3wxzGURj5zULlZlS-38" style="edgeStyle=orthogonalEdgeStyle;rounded=0;orthogonalLoop=1;jettySize=auto;html=1;endArrow=block;endFill=1;" parent="1" source="4WGJ3wxzGURj5zULlZlS-34" target="4WGJ3wxzGURj5zULlZlS-22" edge="1">
          <mxGeometry relative="1" as="geometry">
            <Array as="points">
              <mxPoint x="580" y="670" />
              <mxPoint x="580" y="750" />
            </Array>
          </mxGeometry>
        </mxCell>
        <mxCell id="4WGJ3wxzGURj5zULlZlS-39" style="edgeStyle=orthogonalEdgeStyle;rounded=0;orthogonalLoop=1;jettySize=auto;html=1;endArrow=block;endFill=1;" parent="1" source="4WGJ3wxzGURj5zULlZlS-34" target="4WGJ3wxzGURj5zULlZlS-21" edge="1">
          <mxGeometry relative="1" as="geometry">
            <Array as="points">
              <mxPoint x="580" y="670" />
              <mxPoint x="580" y="830" />
            </Array>
          </mxGeometry>
        </mxCell>
        <mxCell id="4WGJ3wxzGURj5zULlZlS-34" value="SpecialEventsController" style="html=1;whiteSpace=wrap;fillColor=#e1d5e7;strokeColor=#9673a6;" parent="1" vertex="1">
          <mxGeometry x="400" y="640" width="140" height="60" as="geometry" />
        </mxCell>
        <mxCell id="4WGJ3wxzGURj5zULlZlS-50" style="edgeStyle=orthogonalEdgeStyle;rounded=0;orthogonalLoop=1;jettySize=auto;html=1;endArrow=block;endFill=1;" parent="1" source="4WGJ3wxzGURj5zULlZlS-48" target="4WGJ3wxzGURj5zULlZlS-14" edge="1">
          <mxGeometry relative="1" as="geometry" />
        </mxCell>
        <mxCell id="4WGJ3wxzGURj5zULlZlS-51" style="edgeStyle=orthogonalEdgeStyle;rounded=0;orthogonalLoop=1;jettySize=auto;html=1;endArrow=block;endFill=1;" parent="1" source="4WGJ3wxzGURj5zULlZlS-48" target="4WGJ3wxzGURj5zULlZlS-13" edge="1">
          <mxGeometry relative="1" as="geometry">
            <Array as="points">
              <mxPoint x="580" y="270" />
              <mxPoint x="580" y="190" />
            </Array>
          </mxGeometry>
        </mxCell>
        <mxCell id="4WGJ3wxzGURj5zULlZlS-48" value="ShopHandlerController" style="html=1;whiteSpace=wrap;fillColor=#b0e3e6;strokeColor=#0e8088;" parent="1" vertex="1">
          <mxGeometry x="400" y="240" width="140" height="60" as="geometry" />
        </mxCell>
        <mxCell id="4WGJ3wxzGURj5zULlZlS-56" style="edgeStyle=orthogonalEdgeStyle;rounded=0;orthogonalLoop=1;jettySize=auto;html=1;endArrow=block;endFill=1;" parent="1" source="4WGJ3wxzGURj5zULlZlS-55" target="4WGJ3wxzGURj5zULlZlS-15" edge="1">
          <mxGeometry relative="1" as="geometry" />
        </mxCell>
        <mxCell id="4WGJ3wxzGURj5zULlZlS-55" value="ShopController" style="html=1;whiteSpace=wrap;fillColor=#d5e8d4;strokeColor=#82b366;" parent="1" vertex="1">
          <mxGeometry x="400" y="320" width="140" height="60" as="geometry" />
        </mxCell>
        <mxCell id="4WGJ3wxzGURj5zULlZlS-58" style="edgeStyle=orthogonalEdgeStyle;rounded=0;orthogonalLoop=1;jettySize=auto;html=1;endArrow=block;endFill=1;" parent="1" source="4WGJ3wxzGURj5zULlZlS-57" target="4WGJ3wxzGURj5zULlZlS-18" edge="1">
          <mxGeometry relative="1" as="geometry">
            <Array as="points">
              <mxPoint x="580" y="470" />
              <mxPoint x="580" y="430" />
            </Array>
          </mxGeometry>
        </mxCell>
        <mxCell id="4WGJ3wxzGURj5zULlZlS-59" style="edgeStyle=orthogonalEdgeStyle;rounded=0;orthogonalLoop=1;jettySize=auto;html=1;endArrow=block;endFill=1;" parent="1" source="4WGJ3wxzGURj5zULlZlS-57" target="4WGJ3wxzGURj5zULlZlS-16" edge="1">
          <mxGeometry relative="1" as="geometry">
            <Array as="points">
              <mxPoint x="580" y="470" />
              <mxPoint x="580" y="510" />
            </Array>
          </mxGeometry>
        </mxCell>
        <mxCell id="4WGJ3wxzGURj5zULlZlS-57" value="ProductController" style="html=1;whiteSpace=wrap;fillColor=#dae8fc;strokeColor=#6c8ebf;" parent="1" vertex="1">
          <mxGeometry x="400" y="440" width="140" height="60" as="geometry" />
        </mxCell>
        <mxCell id="4WGJ3wxzGURj5zULlZlS-64" style="edgeStyle=orthogonalEdgeStyle;rounded=0;orthogonalLoop=1;jettySize=auto;html=1;endArrow=block;endFill=1;" parent="1" source="4WGJ3wxzGURj5zULlZlS-62" target="4WGJ3wxzGURj5zULlZlS-63" edge="1">
          <mxGeometry relative="1" as="geometry">
            <Array as="points">
              <mxPoint x="580" y="930" />
              <mxPoint x="580" y="910" />
            </Array>
          </mxGeometry>
        </mxCell>
        <mxCell id="4WGJ3wxzGURj5zULlZlS-66" style="edgeStyle=orthogonalEdgeStyle;rounded=0;orthogonalLoop=1;jettySize=auto;html=1;endArrow=block;endFill=1;" parent="1" source="4WGJ3wxzGURj5zULlZlS-62" target="4WGJ3wxzGURj5zULlZlS-65" edge="1">
          <mxGeometry relative="1" as="geometry">
            <Array as="points">
              <mxPoint x="580" y="930" />
              <mxPoint x="580" y="990" />
            </Array>
          </mxGeometry>
        </mxCell>
        <mxCell id="4WGJ3wxzGURj5zULlZlS-62" value="ReviewController" style="html=1;whiteSpace=wrap;fillColor=#f8cecc;strokeColor=#b85450;" parent="1" vertex="1">
          <mxGeometry x="400" y="900" width="140" height="60" as="geometry" />
        </mxCell>
        <mxCell id="4WGJ3wxzGURj5zULlZlS-63" value="ReviewDTO" style="html=1;whiteSpace=wrap;fillColor=#f8cecc;strokeColor=#b85450;" parent="1" vertex="1">
          <mxGeometry x="630" y="880" width="120" height="60" as="geometry" />
        </mxCell>
        <mxCell id="4WGJ3wxzGURj5zULlZlS-65" value="CommentDTO" style="html=1;whiteSpace=wrap;fillColor=#f8cecc;strokeColor=#b85450;" parent="1" vertex="1">
          <mxGeometry x="630" y="960" width="120" height="60" as="geometry" />
        </mxCell>
        <mxCell id="4WGJ3wxzGURj5zULlZlS-70" value="Gateway" style="ellipse;whiteSpace=wrap;html=1;dashed=1;fillColor=#f5f5f5;fontColor=#333333;strokeColor=#666666;" parent="1" vertex="1">
          <mxGeometry x="50" y="230" width="90" height="50" as="geometry" />
        </mxCell>
        <mxCell id="4WGJ3wxzGURj5zULlZlS-71" value="Other Services" style="ellipse;whiteSpace=wrap;html=1;dashed=1;fillColor=#f5f5f5;fontColor=#333333;strokeColor=#666666;" parent="1" vertex="1">
          <mxGeometry x="80" y="300" width="90" height="50" as="geometry" />
        </mxCell>
        <mxCell id="4WGJ3wxzGURj5zULlZlS-73" style="edgeStyle=orthogonalEdgeStyle;rounded=0;orthogonalLoop=1;jettySize=auto;html=1;endArrow=block;endFill=1;" parent="1" source="4WGJ3wxzGURj5zULlZlS-72" target="4WGJ3wxzGURj5zULlZlS-26" edge="1">
          <mxGeometry relative="1" as="geometry" />
        </mxCell>
        <mxCell id="4WGJ3wxzGURj5zULlZlS-79" style="edgeStyle=orthogonalEdgeStyle;rounded=0;orthogonalLoop=1;jettySize=auto;html=1;dashed=1;endArrow=block;endFill=1;" parent="1" source="4WGJ3wxzGURj5zULlZlS-72" target="4WGJ3wxzGURj5zULlZlS-6" edge="1">
          <mxGeometry relative="1" as="geometry">
            <Array as="points">
              <mxPoint x="260" y="300" />
              <mxPoint x="260" y="300" />
            </Array>
          </mxGeometry>
        </mxCell>
        <mxCell id="4WGJ3wxzGURj5zULlZlS-72" value="SellerService" style="html=1;whiteSpace=wrap;fillColor=#fad7ac;strokeColor=#b46504;strokeWidth=2;" parent="1" vertex="1">
          <mxGeometry x="180" y="80" width="120" height="60" as="geometry" />
        </mxCell>
        <mxCell id="4WGJ3wxzGURj5zULlZlS-81" value="&lt;div style=&quot;text-align: justify;&quot;&gt;&lt;span style=&quot;background-color: initial;&quot;&gt;All services can communicate&amp;nbsp;&lt;/span&gt;&lt;/div&gt;&lt;div style=&quot;text-align: justify;&quot;&gt;&lt;span style=&quot;background-color: initial;&quot;&gt;with each other,&amp;nbsp;&lt;/span&gt;&lt;span style=&quot;background-color: initial;&quot;&gt;but we want to keep&amp;nbsp;&lt;/span&gt;&lt;/div&gt;&lt;div style=&quot;text-align: justify;&quot;&gt;&lt;span style=&quot;background-color: initial;&quot;&gt;the communication to the minimum.&lt;/span&gt;&lt;/div&gt;" style="text;html=1;align=center;verticalAlign=middle;resizable=0;points=[];autosize=1;strokeColor=none;fillColor=none;fontStyle=2" parent="1" vertex="1">
          <mxGeometry x="50" y="520" width="220" height="60" as="geometry" />
        </mxCell>
      </root>
    </mxGraphModel>
  </diagram>
</mxfile>
